<?xml version="1.0" standalone="no"?>
<!DOCTYPE svg PUBLIC "-//W3C//DTD SVG 20010904//EN"
 "http://www.w3.org/TR/2001/REC-SVG-20010904/DTD/svg10.dtd">
<svg version="1.0" xmlns="http://www.w3.org/2000/svg"
 width="500.000000pt" height="500.000000pt" viewBox="0 0 500.000000 500.000000"
 preserveAspectRatio="xMidYMid meet">
<metadata>
Created by potrace 1.11, written by Peter Selinger 2001-2013
</metadata>
<g transform="translate(0.000000,500.000000) scale(0.100000,-0.100000)"
fill="#000000" stroke="none">
<path d="M793 3559 c-47 -17 -45 21 -45 -1050 0 -982 1 -1012 19 -1031 41 -40
140 -31 164 15 7 13 11 170 11 468 l1 449 182 0 182 0 30 -57 c201 -396 427
-834 444 -861 43 -69 143 -54 176 26 12 30 9 38 -68 189 -45 87 -101 194 -124
238 -23 44 -90 172 -148 285 l-106 206 65 17 c209 54 338 194 372 402 9 54 8
228 -1 288 -26 165 -120 288 -275 359 -118 54 -175 60 -534 62 -180 1 -335 -1
-345 -5z m729 -198 c189 -61 276 -242 232 -483 -22 -115 -74 -193 -162 -241
-82 -45 -162 -56 -418 -57 l-232 -1 1 398 c0 219 2 401 4 405 2 4 117 6 256 4
224 -3 259 -6 319 -25z"/>
<path d="M2169 3554 c-14 -7 -31 -24 -38 -38 -16 -29 -29 20 141 -561 66 -225
121 -417 123 -425 7 -30 125 -437 149 -515 14 -44 53 -177 87 -295 34 -118 68
-227 75 -241 16 -32 58 -48 109 -43 50 4 72 27 90 88 24 85 226 830 230 846
11 49 34 133 38 137 3 2 8 -4 11 -14 5 -16 187 -687 251 -926 27 -99 34 -111
73 -125 59 -20 139 0 161 42 6 11 49 154 96 316 47 162 92 318 100 345 8 28
62 212 119 410 57 198 141 487 186 642 45 155 80 293 78 305 -4 30 -72 68
-112 63 -56 -6 -65 -15 -85 -84 -27 -91 -326 -1152 -336 -1191 -2 -8 -16 -55
-30 -105 -30 -104 -51 -179 -90 -322 -16 -57 -31 -103 -35 -103 -4 0 -10 12
-14 28 -6 27 -16 67 -101 382 -56 207 -111 415 -149 560 -22 85 -34 111 -58
134 -28 25 -36 28 -77 22 -25 -3 -53 -14 -63 -24 -9 -9 -35 -84 -57 -167 -22
-82 -63 -235 -91 -340 -28 -104 -65 -242 -81 -305 -17 -63 -36 -137 -44 -165
-8 -27 -19 -70 -26 -95 l-11 -45 -14 45 c-8 25 -23 77 -33 115 -11 39 -36 126
-56 195 -20 69 -38 132 -40 140 -4 20 -231 828 -256 910 -10 36 -39 137 -64
225 -25 87 -51 166 -59 173 -19 19 -67 22 -97 6z"/>
</g>
</svg>
